<svg width="203" height="288" viewBox="0 0 203 288" fill="none" xmlns="http://www.w3.org/2000/svg">
<path d="M203 56.5998L184.505 264.823L101.373 288L18.4711 264.823L0 56.5998H203Z" fill="#E44D26"/>
<path d="M101.494 270.288L168.667 251.576L184.444 73.6285H101.494V270.288Z" fill="#F16529"/>
<path d="M65.5469 124.715H101.494V99.1715H37.7796L38.3864 106.027L44.6365 176.411H101.506V150.868H67.877L65.5469 124.715ZM71.3237 189.182H45.838L49.3938 229.29L101.385 243.855H101.506V217.201H101.397L73.0956 209.517L71.3237 189.182Z" fill="#EBEBEB"/>
<path d="M18.8959 0H31.8087V12.8203H43.617V0H56.5298V38.8391H43.617V25.8358H31.8087V38.8391H18.8959V0ZM73.5082 12.8813H62.1367V0H97.7924V12.8813H86.421V38.8391H73.5203V12.8813H73.5082ZM103.46 0H116.931L125.22 13.6498L133.497 0H146.968V38.8391H134.104V19.5903L125.22 33.3987H125.001L116.106 19.5903V38.8391H103.46V0ZM153.388 0H166.301V25.9944H184.505V38.827H153.424V0H153.388Z" fill="black"/>
<path d="M101.409 176.411H132.696L129.747 209.541L101.409 217.226V243.855L153.509 229.339L153.885 225.021L159.856 157.772L160.475 150.916H101.409V176.459V176.411ZM101.409 124.654V124.715H162.793L163.303 118.969L164.517 106.015L165.123 99.1593H101.409V124.641V124.654Z" fill="white"/>
</svg>
