<svg width="264" height="264" viewBox="0 0 264 264" fill="none" xmlns="http://www.w3.org/2000/svg">
<path d="M0 0H263.17V263.15H0V0Z" fill="#F7DF1E"/>
<path d="M69.21 219.91L89.35 207.72C93.24 214.61 96.77 220.44 105.25 220.44C113.38 220.44 118.5 217.26 118.5 204.9V120.81H143.23V205.24C143.23 230.85 128.23 242.51 106.31 242.51C86.53 242.51 75.05 232.26 69.22 219.9M156.66 217.25L176.79 205.59C182.09 214.25 188.98 220.59 201.17 220.59C211.42 220.59 217.95 215.47 217.95 208.4C217.95 199.92 211.24 196.92 199.95 191.97L193.77 189.32C175.93 181.73 164.09 172.19 164.09 152.05C164.09 133.5 178.22 119.37 200.3 119.37C216.02 119.37 227.3 124.85 235.45 139.15L216.2 151.52C211.96 143.92 207.37 140.92 200.3 140.92C193.06 140.92 188.46 145.51 188.46 151.52C188.46 158.94 193.05 161.94 203.65 166.52L209.83 169.17C230.83 178.17 242.69 187.36 242.69 208.03C242.69 230.29 225.2 242.48 201.69 242.48C178.69 242.48 163.89 231.48 156.69 217.22" fill="black"/>
</svg>
